<?xml version="1.0" encoding="utf-8"?>
<!-- Generator: Adobe Illustrator 18.0.0, SVG Export Plug-In . SVG Version: 6.00 Build 0)  -->
<!DOCTYPE svg PUBLIC "-//W3C//DTD SVG 1.1//EN" "http://www.w3.org/Graphics/SVG/1.1/DTD/svg11.dtd">
<svg version="1.1" id="Layer_1" xmlns="http://www.w3.org/2000/svg" xmlns:xlink="http://www.w3.org/1999/xlink" x="0px" y="0px"
	 viewBox="-0.5 0.4 101.3 67.7" enable-background="new -0.5 0.4 101.3 67.7" xml:space="preserve">
<polygon fill="#FFFFFF" points="63.6,40.9 63.6,47.9 50.7,56.8 37.4,47.9 37.4,40.9 50.8,48.6 "/>
<path fill="#FFFFFF" d="M50.8,46.7l25-14.4l-25-12.2L25,32.3l5.6,3.1c-0.1,3.7-0.5,11-0.9,13.3c-0.3,1.9-2,4.7-5,8.2
	c-0.1,0.1-0.3,0.3-0.2,0.5c0.1,0.2,0.3,0.2,0.4,0.2c0.8,0,2.9-0.8,4.1-1.7c0.2-0.1,0.3-0.2,0.4-0.2c0.5,0,0.8,0.9,1.1,1.8
	c0.3,0.9,0.5,1.7,1,1.9c0.1,0,0.1,0.1,0.2,0.1c0.2,0,0.3-0.1,0.5-0.3c0.8-1.1,1.5-5.4,1-9.4c-0.4-3.6-0.2-9.8,0.1-13.1L50.8,46.7z
	 M50.4,26.2c1.2,0,2.1,1.1,2.1,2.4c0,1.3-0.9,2.4-2.1,2.4c-1.2,0-2.1-1.1-2.1-2.4C48.3,27.3,49.3,26.2,50.4,26.2z"/>
</svg>
